# xmcd
#
# Track frame offsets: 
#        150
#        12310
#        29842
#        50056
#        70500
#        90693
#        113661
#        130086
#        150429
#        165276
#        187798
#        202762
#        221268
#
# Disc length: 3215 seconds
#
# Revision: 0
# Processed by: cddbd v1.5.2PL0 Copyright (c) Steve Scherf et al.
# Submitted via: ExactAudioCopy v0.99pb5
#
DISCID=9b0c8d0d
DTITLE=Southside Denny Snyder - Full Circle
DYEAR=2009
DGENRE=Blues
TTITLE0=Lazy Busy Blues
TTITLE1=Steppin' Up
TTITLE2=I Got To Go
TTITLE3=Change Is Good
TTITLE4=Delirious Frank
TTITLE5=Pays Cool
TTITLE6=Strongest Man In The World
TTITLE7=City Slicker
TTITLE8=Lac Echo
TTITLE9=Perfectionist Blues
TTITLE10=Story
TTITLE11=Nothin' Doin'
TTITLE12=P'tit Cars
EXTD=
EXTT0=
EXTT1=
EXTT2=
EXTT3=
EXTT4=
EXTT5=
EXTT6=
EXTT7=
EXTT8=
EXTT9=
EXTT10=
EXTT11=
EXTT12=
PLAYORDER=
